<?xml version="1.0" encoding="UTF-8" standalone="no"?>
<svg
   viewBox="0 0 333334 234461"
   shape-rendering="geometricPrecision"
   text-rendering="geometricPrecision"
   image-rendering="optimizeQuality"
   fill-rule="evenodd"
   clip-rule="evenodd"
   version="1.1"
   id="svg1"
   sodipodi:docname="youtube-color-icon-white-trimmed.svg"
   inkscape:version="1.3.2 (091e20e, 2023-11-25, custom)"
   xmlns:inkscape="http://www.inkscape.org/namespaces/inkscape"
   xmlns:sodipodi="http://sodipodi.sourceforge.net/DTD/sodipodi-0.dtd"
   xmlns="http://www.w3.org/2000/svg"
   xmlns:svg="http://www.w3.org/2000/svg">
  <defs
     id="defs1" />
  <sodipodi:namedview
     id="namedview1"
     pagecolor="#505050"
     bordercolor="#ffffff"
     borderopacity="1"
     inkscape:showpageshadow="0"
     inkscape:pageopacity="0"
     inkscape:pagecheckerboard="1"
     inkscape:deskcolor="#505050"
     inkscape:zoom="0.01"
     inkscape:cx="16300"
     inkscape:cy="-1350"
     inkscape:window-width="1920"
     inkscape:window-height="1009"
     inkscape:window-x="-8"
     inkscape:window-y="-8"
     inkscape:window-maximized="1"
     inkscape:current-layer="svg1"
     showgrid="false" />
  <path
     d="m 329931,50585 c 0,0 -3254,-22976 -13269,-33065 C 303971,4251 289761,4166 283265,3396 236656,0 166651,0 166651,0 h -122 C 166529,0 96556,0 49921,3396 43399,4189 29209,4244 16524,17520 6502,27609 3317,50585 3317,50585 3317,50585 0,77547 0,104566 v 25265 c 0,26962 3315,53979 3315,53979 0,0 3254,22976 13207,33082 12685,13269 29356,12838 36798,14254 26685,2547 113354,3315 113354,3315 0,0 70065,-124 116675,-3457 6522,-770 20706,-848 33397,-14124 10021,-10089 13269,-33090 13269,-33090 0,0 3319,-26962 3319,-53979 v -25263 c -67,-26962 -3384,-53979 -3384,-53979 l -18,18 -2,-2 z M 132124,160482 V 66801 l 90046,46997 z"
     fill="red"
     id="path1"
     style="fill:#ffffff;fill-opacity:1" />
</svg>
