<?xml version="1.0" encoding="UTF-8" standalone="no"?>
<svg
   id="Layer_1"
   data-name="Layer 1"
   viewBox="0 0 106.23 122.88"
   version="1.1"
   sodipodi:docname="android-robot-bot-icon-red.svg"
   inkscape:version="1.3.2 (091e20e, 2023-11-25, custom)"
   xmlns:inkscape="http://www.inkscape.org/namespaces/inkscape"
   xmlns:sodipodi="http://sodipodi.sourceforge.net/DTD/sodipodi-0.dtd"
   xmlns="http://www.w3.org/2000/svg"
   xmlns:svg="http://www.w3.org/2000/svg"
   xmlns:rdf="http://www.w3.org/1999/02/22-rdf-syntax-ns#"
   xmlns:cc="http://creativecommons.org/ns#"
   xmlns:dc="http://purl.org/dc/elements/1.1/">
  <sodipodi:namedview
     id="namedview5"
     pagecolor="#505050"
     bordercolor="#ffffff"
     borderopacity="1"
     inkscape:showpageshadow="0"
     inkscape:pageopacity="0"
     inkscape:pagecheckerboard="1"
     inkscape:deskcolor="#505050"
     inkscape:zoom="6.6162111"
     inkscape:cx="53.051512"
     inkscape:cy="61.439999"
     inkscape:window-width="1920"
     inkscape:window-height="1009"
     inkscape:window-x="-8"
     inkscape:window-y="-8"
     inkscape:window-maximized="1"
     inkscape:current-layer="Layer_1" />
  <defs
     id="defs1">
    <style
       id="style1">.cls-1{fill:#a4c639;}.cls-2{fill:#fff;}</style>
  </defs>
  <title
     id="title1">android-robot-bot</title>
  <path
     id="path1"
     class="cls-1"
     d="M 32.619141 0 A 2.36 2.36 0 0 0 31.429688 0.30078125 A 2.36 2.36 0 0 0 30.509766 3.5195312 L 35.740234 13 C 26.270254 18.33999 20 28.000022 20 39 L 86.289062 39 C 86.289062 28.000022 79.959982 18.33999 70.5 13 L 75.730469 3.5703125 A 2.37 2.37 0 0 0 74.800781 0.30078125 A 2.37 2.37 0 0 0 71.580078 1.2207031 L 66.220703 10.900391 A 35.84 35.84 0 0 0 40.019531 10.900391 L 34.650391 1.2207031 A 2.36 2.36 0 0 0 32.619141 0 z M 37.619141 21.207031 A 2.77 2.77 0 0 1 39.800781 22.080078 L 39.810547 22.089844 A 2.76 2.76 0 0 1 39.810547 26 A 2.78 2.78 0 0 1 35.890625 26 A 2.77 2.77 0 0 1 37.619141 21.207031 z M 68.189453 21.207031 A 2.77 2.77 0 0 1 70.369141 22.080078 L 70.380859 22.089844 A 2.77 2.77 0 0 1 66.460938 26 A 2.77 2.77 0 0 1 68.189453 21.207031 z M 8.75 39 A 8.75 8.75 0 0 0 0 47.769531 L 0 78.769531 A 8.75 8.75 0 0 0 8.75 87.5 A 8.75 8.75 0 0 0 17.5 78.75 L 17.5 47.75 A 8.75 8.75 0 0 0 8.75 39 z M 97.490234 39 A 8.75 8.75 0 0 0 88.740234 47.75 L 88.740234 78.75 A 8.75 8.75 0 0 0 97.490234 87.5 A 8.74 8.74 0 0 0 106.23047 78.75 L 106.23047 47.75 A 8.74 8.74 0 0 0 97.490234 39 z M 20 41.630859 L 20 89.730469 A 8 8 0 0 0 28 97.730469 L 32 97.730469 L 32 114.13086 A 8.74 8.74 0 0 0 40.720703 122.88086 A 8.75 8.75 0 0 0 49.470703 114.13086 L 49.470703 97.730469 L 56.789062 97.730469 L 56.789062 114.10938 A 8.75 8.75 0 0 0 65.539062 122.85938 A 8.75 8.75 0 0 0 74.289062 114.10938 L 74.289062 97.710938 L 78.289062 97.710938 A 8 8 0 0 0 86.289062 89.710938 L 86.289062 41.630859 L 20 41.630859 z "
     style="fill:#ea8a95;fill-opacity:1" />
  <metadata
     id="metadata10">
    <rdf:RDF>
      <cc:Work
         rdf:about="">
        <dc:title>android-robot-bot</dc:title>
      </cc:Work>
    </rdf:RDF>
  </metadata>
</svg>
